<svg xmlns="http://www.w3.org/2000/svg" version="1.1" viewBox="45.00 45.00 1435.00 1035.00">

	
	<rect x="95.00" y="95.00" width="120.00" height="80.00" style="fill:coral;stroke:Olive;stroke-width:1.00" opacity="0.9" />
	<text x="100.00" y="110.00" font-size="10" fill="black">b01.1</text>
	<rect x="95.00" y="190.00" width="120.00" height="80.00" style="fill:coral;stroke:Olive;stroke-width:1.00" opacity="0.9" />
	<text x="100.00" y="205.00" font-size="10" fill="black">b02.1</text>
	<rect x="95.00" y="285.00" width="120.00" height="80.00" style="fill:coral;stroke:Olive;stroke-width:1.00" opacity="0.9" />
	<text x="100.00" y="300.00" font-size="10" fill="black">b03.1</text>
	<rect x="95.00" y="380.00" width="120.00" height="80.00" style="fill:coral;stroke:Olive;stroke-width:1.00" opacity="0.9" />
	<text x="100.00" y="395.00" font-size="10" fill="black">b04.1</text>
	<rect x="95.00" y="475.00" width="120.00" height="80.00" style="fill:coral;stroke:Olive;stroke-width:1.00" opacity="0.9" />
	<text x="100.00" y="490.00" font-size="10" fill="black">b05.1</text>
	<rect x="95.00" y="570.00" width="120.00" height="80.00" style="fill:coral;stroke:Olive;stroke-width:1.00" opacity="0.9" />
	<text x="100.00" y="585.00" font-size="10" fill="black">b06.1</text>
	<rect x="95.00" y="665.00" width="120.00" height="80.00" style="fill:coral;stroke:Olive;stroke-width:1.00" opacity="0.9" />
	<text x="100.00" y="680.00" font-size="10" fill="black">b07.1</text>
	<rect x="95.00" y="760.00" width="120.00" height="80.00" style="fill:coral;stroke:Olive;stroke-width:1.00" opacity="0.9" />
	<text x="100.00" y="775.00" font-size="10" fill="black">b08.1</text>
	<rect x="95.00" y="855.00" width="120.00" height="80.00" style="fill:coral;stroke:Olive;stroke-width:1.00" opacity="0.9" />
	<text x="100.00" y="870.00" font-size="10" fill="black">b09.1</text>
	<rect x="95.00" y="950.00" width="120.00" height="80.00" style="fill:coral;stroke:Olive;stroke-width:1.00" opacity="0.9" />
	<text x="100.00" y="965.00" font-size="10" fill="black">b010.1</text>
	<rect x="230.00" y="95.00" width="120.00" height="80.00" style="fill:coral;stroke:Olive;stroke-width:1.00" opacity="0.9" />
	<text x="235.00" y="110.00" font-size="10" fill="black">b01.2</text>
	<rect x="230.00" y="190.00" width="120.00" height="80.00" style="fill:coral;stroke:Olive;stroke-width:1.00" opacity="0.9" />
	<text x="235.00" y="205.00" font-size="10" fill="black">b02.2</text>
	<rect x="230.00" y="285.00" width="120.00" height="80.00" style="fill:coral;stroke:Olive;stroke-width:1.00" opacity="0.9" />
	<text x="235.00" y="300.00" font-size="10" fill="black">b03.2</text>
	<rect x="230.00" y="380.00" width="120.00" height="80.00" style="fill:coral;stroke:Olive;stroke-width:1.00" opacity="0.9" />
	<text x="235.00" y="395.00" font-size="10" fill="black">b04.2</text>
	<rect x="230.00" y="475.00" width="120.00" height="80.00" style="fill:coral;stroke:Olive;stroke-width:1.00" opacity="0.9" />
	<text x="235.00" y="490.00" font-size="10" fill="black">b05.2</text>
	<rect x="230.00" y="570.00" width="120.00" height="80.00" style="fill:coral;stroke:Olive;stroke-width:1.00" opacity="0.9" />
	<text x="235.00" y="585.00" font-size="10" fill="black">b06.2</text>
	<rect x="230.00" y="665.00" width="120.00" height="80.00" style="fill:coral;stroke:Olive;stroke-width:1.00" opacity="0.9" />
	<text x="235.00" y="680.00" font-size="10" fill="black">b07.2</text>
	<rect x="230.00" y="760.00" width="120.00" height="80.00" style="fill:coral;stroke:Olive;stroke-width:1.00" opacity="0.9" />
	<text x="235.00" y="775.00" font-size="10" fill="black">b08.2</text>
	<rect x="230.00" y="855.00" width="120.00" height="80.00" style="fill:coral;stroke:Olive;stroke-width:1.00" opacity="0.9" />
	<text x="235.00" y="870.00" font-size="10" fill="black">b09.2</text>
	<rect x="230.00" y="950.00" width="120.00" height="80.00" style="fill:coral;stroke:Olive;stroke-width:1.00" opacity="0.9" />
	<text x="235.00" y="965.00" font-size="10" fill="black">b010.2</text>
	<rect x="365.00" y="95.00" width="120.00" height="80.00" style="fill:coral;stroke:Olive;stroke-width:1.00" opacity="0.9" />
	<text x="370.00" y="110.00" font-size="10" fill="black">b01.3</text>
	<rect x="365.00" y="190.00" width="120.00" height="80.00" style="fill:coral;stroke:Olive;stroke-width:1.00" opacity="0.9" />
	<text x="370.00" y="205.00" font-size="10" fill="black">b02.3</text>
	<rect x="365.00" y="285.00" width="120.00" height="80.00" style="fill:coral;stroke:Olive;stroke-width:1.00" opacity="0.9" />
	<text x="370.00" y="300.00" font-size="10" fill="black">b03.3</text>
	<rect x="365.00" y="380.00" width="120.00" height="80.00" style="fill:coral;stroke:Olive;stroke-width:1.00" opacity="0.9" />
	<text x="370.00" y="395.00" font-size="10" fill="black">b04.3</text>
	<rect x="365.00" y="475.00" width="120.00" height="80.00" style="fill:coral;stroke:Olive;stroke-width:1.00" opacity="0.9" />
	<text x="370.00" y="490.00" font-size="10" fill="black">b05.3</text>
	<rect x="365.00" y="570.00" width="120.00" height="80.00" style="fill:coral;stroke:Olive;stroke-width:1.00" opacity="0.9" />
	<text x="370.00" y="585.00" font-size="10" fill="black">b06.3</text>
	<rect x="365.00" y="665.00" width="120.00" height="80.00" style="fill:coral;stroke:Olive;stroke-width:1.00" opacity="0.9" />
	<text x="370.00" y="680.00" font-size="10" fill="black">b07.3</text>
	<rect x="365.00" y="760.00" width="120.00" height="80.00" style="fill:coral;stroke:Olive;stroke-width:1.00" opacity="0.9" />
	<text x="370.00" y="775.00" font-size="10" fill="black">b08.3</text>
	<rect x="365.00" y="855.00" width="120.00" height="80.00" style="fill:coral;stroke:Olive;stroke-width:1.00" opacity="0.9" />
	<text x="370.00" y="870.00" font-size="10" fill="black">b09.3</text>
	<rect x="365.00" y="950.00" width="120.00" height="80.00" style="fill:coral;stroke:Olive;stroke-width:1.00" opacity="0.9" />
	<text x="370.00" y="965.00" font-size="10" fill="black">b010.3</text>
	<rect x="500.00" y="95.00" width="120.00" height="80.00" style="fill:coral;stroke:Olive;stroke-width:1.00" opacity="0.9" />
	<text x="505.00" y="110.00" font-size="10" fill="black">b01.4</text>
	<rect x="500.00" y="190.00" width="120.00" height="80.00" style="fill:coral;stroke:Olive;stroke-width:1.00" opacity="0.9" />
	<text x="505.00" y="205.00" font-size="10" fill="black">b02.4</text>
	<rect x="500.00" y="285.00" width="120.00" height="80.00" style="fill:coral;stroke:Olive;stroke-width:1.00" opacity="0.9" />
	<text x="505.00" y="300.00" font-size="10" fill="black">b03.4</text>
	<rect x="500.00" y="380.00" width="120.00" height="80.00" style="fill:coral;stroke:Olive;stroke-width:1.00" opacity="0.9" />
	<text x="505.00" y="395.00" font-size="10" fill="black">b04.4</text>
	<rect x="500.00" y="475.00" width="120.00" height="80.00" style="fill:coral;stroke:Olive;stroke-width:1.00" opacity="0.9" />
	<text x="505.00" y="490.00" font-size="10" fill="black">b05.4</text>
	<rect x="500.00" y="570.00" width="120.00" height="80.00" style="fill:coral;stroke:Olive;stroke-width:1.00" opacity="0.9" />
	<text x="505.00" y="585.00" font-size="10" fill="black">b06.4</text>
	<rect x="500.00" y="665.00" width="120.00" height="80.00" style="fill:coral;stroke:Olive;stroke-width:1.00" opacity="0.9" />
	<text x="505.00" y="680.00" font-size="10" fill="black">b07.4</text>
	<rect x="500.00" y="760.00" width="120.00" height="80.00" style="fill:coral;stroke:Olive;stroke-width:1.00" opacity="0.9" />
	<text x="505.00" y="775.00" font-size="10" fill="black">b08.4</text>
	<rect x="500.00" y="855.00" width="120.00" height="80.00" style="fill:coral;stroke:Olive;stroke-width:1.00" opacity="0.9" />
	<text x="505.00" y="870.00" font-size="10" fill="black">b09.4</text>
	<rect x="500.00" y="950.00" width="120.00" height="80.00" style="fill:coral;stroke:Olive;stroke-width:1.00" opacity="0.9" />
	<text x="505.00" y="965.00" font-size="10" fill="black">b010.4</text>
	<rect x="635.00" y="95.00" width="120.00" height="80.00" style="fill:coral;stroke:Olive;stroke-width:1.00" opacity="0.9" />
	<text x="640.00" y="110.00" font-size="10" fill="black">b01.5</text>
	<rect x="635.00" y="190.00" width="120.00" height="80.00" style="fill:coral;stroke:Olive;stroke-width:1.00" opacity="0.9" />
	<text x="640.00" y="205.00" font-size="10" fill="black">b02.5</text>
	<rect x="635.00" y="285.00" width="120.00" height="80.00" style="fill:coral;stroke:Olive;stroke-width:1.00" opacity="0.9" />
	<text x="640.00" y="300.00" font-size="10" fill="black">b03.5</text>
	<rect x="635.00" y="380.00" width="120.00" height="80.00" style="fill:coral;stroke:Olive;stroke-width:1.00" opacity="0.9" />
	<text x="640.00" y="395.00" font-size="10" fill="black">b04.5</text>
	<rect x="635.00" y="475.00" width="120.00" height="80.00" style="fill:coral;stroke:Olive;stroke-width:1.00" opacity="0.9" />
	<text x="640.00" y="490.00" font-size="10" fill="black">b05.5</text>
	<rect x="635.00" y="570.00" width="120.00" height="80.00" style="fill:coral;stroke:Olive;stroke-width:1.00" opacity="0.9" />
	<text x="640.00" y="585.00" font-size="10" fill="black">b06.5</text>
	<rect x="635.00" y="665.00" width="120.00" height="80.00" style="fill:coral;stroke:Olive;stroke-width:1.00" opacity="0.9" />
	<text x="640.00" y="680.00" font-size="10" fill="black">b07.5</text>
	<rect x="635.00" y="760.00" width="120.00" height="80.00" style="fill:coral;stroke:Olive;stroke-width:1.00" opacity="0.9" />
	<text x="640.00" y="775.00" font-size="10" fill="black">b08.5</text>
	<rect x="635.00" y="855.00" width="120.00" height="80.00" style="fill:coral;stroke:Olive;stroke-width:1.00" opacity="0.9" />
	<text x="640.00" y="870.00" font-size="10" fill="black">b09.5</text>
	<rect x="635.00" y="950.00" width="120.00" height="80.00" style="fill:coral;stroke:Olive;stroke-width:1.00" opacity="0.9" />
	<text x="640.00" y="965.00" font-size="10" fill="black">b010.5</text>
	<rect x="770.00" y="95.00" width="120.00" height="80.00" style="fill:coral;stroke:Olive;stroke-width:1.00" opacity="0.9" />
	<text x="775.00" y="110.00" font-size="10" fill="black">b01.6</text>
	<rect x="770.00" y="190.00" width="120.00" height="80.00" style="fill:coral;stroke:Olive;stroke-width:1.00" opacity="0.9" />
	<text x="775.00" y="205.00" font-size="10" fill="black">b02.6</text>
	<rect x="770.00" y="285.00" width="120.00" height="80.00" style="fill:coral;stroke:Olive;stroke-width:1.00" opacity="0.9" />
	<text x="775.00" y="300.00" font-size="10" fill="black">b03.6</text>
	<rect x="770.00" y="380.00" width="120.00" height="80.00" style="fill:coral;stroke:Olive;stroke-width:1.00" opacity="0.9" />
	<text x="775.00" y="395.00" font-size="10" fill="black">b04.6</text>
	<rect x="770.00" y="475.00" width="120.00" height="80.00" style="fill:coral;stroke:Olive;stroke-width:1.00" opacity="0.9" />
	<text x="775.00" y="490.00" font-size="10" fill="black">b05.6</text>
	<rect x="770.00" y="570.00" width="120.00" height="80.00" style="fill:coral;stroke:Olive;stroke-width:1.00" opacity="0.9" />
	<text x="775.00" y="585.00" font-size="10" fill="black">b06.6</text>
	<rect x="770.00" y="665.00" width="120.00" height="80.00" style="fill:coral;stroke:Olive;stroke-width:1.00" opacity="0.9" />
	<text x="775.00" y="680.00" font-size="10" fill="black">b07.6</text>
	<rect x="770.00" y="760.00" width="120.00" height="80.00" style="fill:coral;stroke:Olive;stroke-width:1.00" opacity="0.9" />
	<text x="775.00" y="775.00" font-size="10" fill="black">b08.6</text>
	<rect x="770.00" y="855.00" width="120.00" height="80.00" style="fill:coral;stroke:Olive;stroke-width:1.00" opacity="0.9" />
	<text x="775.00" y="870.00" font-size="10" fill="black">b09.6</text>
	<rect x="770.00" y="950.00" width="120.00" height="80.00" style="fill:coral;stroke:Olive;stroke-width:1.00" opacity="0.9" />
	<text x="775.00" y="965.00" font-size="10" fill="black">b010.6</text>
	<rect x="905.00" y="95.00" width="120.00" height="80.00" style="fill:coral;stroke:Olive;stroke-width:1.00" opacity="0.9" />
	<text x="910.00" y="110.00" font-size="10" fill="black">b01.7</text>
	<rect x="905.00" y="190.00" width="120.00" height="80.00" style="fill:coral;stroke:Olive;stroke-width:1.00" opacity="0.9" />
	<text x="910.00" y="205.00" font-size="10" fill="black">b02.7</text>
	<rect x="905.00" y="285.00" width="120.00" height="80.00" style="fill:coral;stroke:Olive;stroke-width:1.00" opacity="0.9" />
	<text x="910.00" y="300.00" font-size="10" fill="black">b03.7</text>
	<rect x="905.00" y="380.00" width="120.00" height="80.00" style="fill:coral;stroke:Olive;stroke-width:1.00" opacity="0.9" />
	<text x="910.00" y="395.00" font-size="10" fill="black">b04.7</text>
	<rect x="905.00" y="475.00" width="120.00" height="80.00" style="fill:coral;stroke:Olive;stroke-width:1.00" opacity="0.9" />
	<text x="910.00" y="490.00" font-size="10" fill="black">b05.7</text>
	<rect x="905.00" y="570.00" width="120.00" height="80.00" style="fill:coral;stroke:Olive;stroke-width:1.00" opacity="0.9" />
	<text x="910.00" y="585.00" font-size="10" fill="black">b06.7</text>
	<rect x="905.00" y="665.00" width="120.00" height="80.00" style="fill:coral;stroke:Olive;stroke-width:1.00" opacity="0.9" />
	<text x="910.00" y="680.00" font-size="10" fill="black">b07.7</text>
	<rect x="905.00" y="760.00" width="120.00" height="80.00" style="fill:coral;stroke:Olive;stroke-width:1.00" opacity="0.9" />
	<text x="910.00" y="775.00" font-size="10" fill="black">b08.7</text>
	<rect x="905.00" y="855.00" width="120.00" height="80.00" style="fill:coral;stroke:Olive;stroke-width:1.00" opacity="0.9" />
	<text x="910.00" y="870.00" font-size="10" fill="black">b09.7</text>
	<rect x="905.00" y="950.00" width="120.00" height="80.00" style="fill:coral;stroke:Olive;stroke-width:1.00" opacity="0.9" />
	<text x="910.00" y="965.00" font-size="10" fill="black">b010.7</text>
	<rect x="1040.00" y="95.00" width="120.00" height="80.00" style="fill:coral;stroke:Olive;stroke-width:1.00" opacity="0.9" />
	<text x="1045.00" y="110.00" font-size="10" fill="black">b01.8</text>
	<rect x="1040.00" y="190.00" width="120.00" height="80.00" style="fill:coral;stroke:Olive;stroke-width:1.00" opacity="0.9" />
	<text x="1045.00" y="205.00" font-size="10" fill="black">b02.8</text>
	<rect x="1040.00" y="285.00" width="120.00" height="80.00" style="fill:coral;stroke:Olive;stroke-width:1.00" opacity="0.9" />
	<text x="1045.00" y="300.00" font-size="10" fill="black">b03.8</text>
	<rect x="1040.00" y="380.00" width="120.00" height="80.00" style="fill:coral;stroke:Olive;stroke-width:1.00" opacity="0.9" />
	<text x="1045.00" y="395.00" font-size="10" fill="black">b04.8</text>
	<rect x="1040.00" y="475.00" width="120.00" height="80.00" style="fill:coral;stroke:Olive;stroke-width:1.00" opacity="0.9" />
	<text x="1045.00" y="490.00" font-size="10" fill="black">b05.8</text>
	<rect x="1040.00" y="570.00" width="120.00" height="80.00" style="fill:coral;stroke:Olive;stroke-width:1.00" opacity="0.9" />
	<text x="1045.00" y="585.00" font-size="10" fill="black">b06.8</text>
	<rect x="1040.00" y="665.00" width="120.00" height="80.00" style="fill:coral;stroke:Olive;stroke-width:1.00" opacity="0.9" />
	<text x="1045.00" y="680.00" font-size="10" fill="black">b07.8</text>
	<rect x="1040.00" y="760.00" width="120.00" height="80.00" style="fill:coral;stroke:Olive;stroke-width:1.00" opacity="0.9" />
	<text x="1045.00" y="775.00" font-size="10" fill="black">b08.8</text>
	<rect x="1040.00" y="855.00" width="120.00" height="80.00" style="fill:coral;stroke:Olive;stroke-width:1.00" opacity="0.9" />
	<text x="1045.00" y="870.00" font-size="10" fill="black">b09.8</text>
	<rect x="1040.00" y="950.00" width="120.00" height="80.00" style="fill:coral;stroke:Olive;stroke-width:1.00" opacity="0.9" />
	<text x="1045.00" y="965.00" font-size="10" fill="black">b010.8</text>
	<rect x="1175.00" y="95.00" width="120.00" height="80.00" style="fill:coral;stroke:Olive;stroke-width:1.00" opacity="0.9" />
	<text x="1180.00" y="110.00" font-size="10" fill="black">b01.9</text>
	<rect x="1175.00" y="190.00" width="120.00" height="80.00" style="fill:coral;stroke:Olive;stroke-width:1.00" opacity="0.9" />
	<text x="1180.00" y="205.00" font-size="10" fill="black">b02.9</text>
	<rect x="1175.00" y="285.00" width="120.00" height="80.00" style="fill:coral;stroke:Olive;stroke-width:1.00" opacity="0.9" />
	<text x="1180.00" y="300.00" font-size="10" fill="black">b03.9</text>
	<rect x="1175.00" y="380.00" width="120.00" height="80.00" style="fill:coral;stroke:Olive;stroke-width:1.00" opacity="0.9" />
	<text x="1180.00" y="395.00" font-size="10" fill="black">b04.9</text>
	<rect x="1175.00" y="475.00" width="120.00" height="80.00" style="fill:coral;stroke:Olive;stroke-width:1.00" opacity="0.9" />
	<text x="1180.00" y="490.00" font-size="10" fill="black">b05.9</text>
	<rect x="1175.00" y="570.00" width="120.00" height="80.00" style="fill:coral;stroke:Olive;stroke-width:1.00" opacity="0.9" />
	<text x="1180.00" y="585.00" font-size="10" fill="black">b06.9</text>
	<rect x="1175.00" y="665.00" width="120.00" height="80.00" style="fill:coral;stroke:Olive;stroke-width:1.00" opacity="0.9" />
	<text x="1180.00" y="680.00" font-size="10" fill="black">b07.9</text>
	<rect x="1175.00" y="760.00" width="120.00" height="80.00" style="fill:coral;stroke:Olive;stroke-width:1.00" opacity="0.9" />
	<text x="1180.00" y="775.00" font-size="10" fill="black">b08.9</text>
	<rect x="1175.00" y="855.00" width="120.00" height="80.00" style="fill:coral;stroke:Olive;stroke-width:1.00" opacity="0.9" />
	<text x="1180.00" y="870.00" font-size="10" fill="black">b09.9</text>
	<rect x="1175.00" y="950.00" width="120.00" height="80.00" style="fill:coral;stroke:Olive;stroke-width:1.00" opacity="0.9" />
	<text x="1180.00" y="965.00" font-size="10" fill="black">b010.9</text>
	<rect x="1310.00" y="95.00" width="120.00" height="80.00" style="fill:coral;stroke:Olive;stroke-width:1.00" opacity="0.9" />
	<text x="1315.00" y="110.00" font-size="10" fill="black">b01.10</text>
	<rect x="1310.00" y="190.00" width="120.00" height="80.00" style="fill:coral;stroke:Olive;stroke-width:1.00" opacity="0.9" />
	<text x="1315.00" y="205.00" font-size="10" fill="black">b02.10</text>
	<rect x="1310.00" y="285.00" width="120.00" height="80.00" style="fill:coral;stroke:Olive;stroke-width:1.00" opacity="0.9" />
	<text x="1315.00" y="300.00" font-size="10" fill="black">b03.10</text>
	<rect x="1310.00" y="380.00" width="120.00" height="80.00" style="fill:coral;stroke:Olive;stroke-width:1.00" opacity="0.9" />
	<text x="1315.00" y="395.00" font-size="10" fill="black">b04.10</text>
	<rect x="1310.00" y="475.00" width="120.00" height="80.00" style="fill:coral;stroke:Olive;stroke-width:1.00" opacity="0.9" />
	<text x="1315.00" y="490.00" font-size="10" fill="black">b05.10</text>
	<rect x="1310.00" y="570.00" width="120.00" height="80.00" style="fill:coral;stroke:Olive;stroke-width:1.00" opacity="0.9" />
	<text x="1315.00" y="585.00" font-size="10" fill="black">b06.10</text>
	<rect x="1310.00" y="665.00" width="120.00" height="80.00" style="fill:coral;stroke:Olive;stroke-width:1.00" opacity="0.9" />
	<text x="1315.00" y="680.00" font-size="10" fill="black">b07.10</text>
	<rect x="1310.00" y="760.00" width="120.00" height="80.00" style="fill:coral;stroke:Olive;stroke-width:1.00" opacity="0.9" />
	<text x="1315.00" y="775.00" font-size="10" fill="black">b08.10</text>
	<rect x="1310.00" y="855.00" width="120.00" height="80.00" style="fill:coral;stroke:Olive;stroke-width:1.00" opacity="0.9" />
	<text x="1315.00" y="870.00" font-size="10" fill="black">b09.10</text>
	<rect x="1310.00" y="950.00" width="120.00" height="80.00" style="fill:coral;stroke:Olive;stroke-width:1.00" opacity="0.9" />
	<text x="1315.00" y="965.00" font-size="10" fill="black">b010.10</text>
</svg>
